<svg xmlns="http://www.w3.org/2000/svg" width="229" height="47" viewBox="0 0 229 47" fill="none" style="&#10;">
<path d="M0 0H13.95V4.16H9.06V32.72H4.9V4.16H0V0ZM26 0H30.16V32.72H26V24.56H20.36V32.72H16.2V0H20.36V20.4H26V0ZM32.4 0H43.91V4.16H36.56V20.4H39.82V24.56H36.56V28.56H43.91V32.72H32.4V0Z" fill="#989898" style="&#10;"/>
<path d="M63.27 28.56C66.6233 28.56 69.5 27.37 71.9 24.99C74.28 22.59 75.47 19.7133 75.47 16.36C75.47 13.0067 74.28 10.13 71.9 7.73C69.5 5.35 66.6233 4.16 63.27 4.16C59.91 4.16 57.0333 5.35 54.64 7.73C52.26 10.13 51.07 13.0067 51.07 16.36C51.07 19.7133 52.26 22.59 54.64 24.99C57.0333 27.37 59.91 28.56 63.27 28.56ZM63.27 0C67.7767 0 71.6333 1.59667 74.84 4.79C78.0333 7.99667 79.63 11.8533 79.63 16.36C79.63 20.8667 78.0333 24.7233 74.84 27.93C71.6333 31.1233 67.7767 32.72 63.27 32.72C58.7567 32.72 54.9 31.1233 51.7 27.93C48.5067 24.7233 46.91 20.8667 46.91 16.36C46.91 11.8533 48.5067 7.99667 51.7 4.79C54.9 1.59667 58.7567 0 63.27 0ZM92.8 0H97.02L91.29 32.72H87.52L81.79 0H86.01L89.4 19.37L92.8 0ZM99.27 0H110.77V4.16H103.43V20.4H106.68V24.56H103.43V28.56H110.77V32.72H99.27V0ZM117.18 4.2V20.36C119.02 20.2867 120.69 19.4633 122.19 17.89C123.69 16.3167 124.44 14.4433 124.44 12.27C124.44 10.11 123.69 8.24333 122.19 6.67C120.69 5.09667 119.02 4.27333 117.18 4.2ZM128.62 12.27C128.62 14.49 128.057 16.5567 126.93 18.47C125.85 20.3167 124.607 21.65 123.2 22.47C124.547 23.2633 125.76 24.5433 126.84 26.31C127.933 28.1433 128.527 30.28 128.62 32.72H124.46C124.34 30.3533 123.537 28.4267 122.05 26.94C120.57 25.46 118.947 24.6733 117.18 24.58V32.72H113.02V0H117.18V0.0200005C120.193 0.126667 122.843 1.37 125.13 3.75C127.457 6.13667 128.62 8.97667 128.62 12.27ZM130.86 0H135.02V28.56H142.37V32.72H130.86V0ZM160.98 28.56C164.333 28.56 167.21 27.37 169.61 24.99C171.99 22.59 173.18 19.7133 173.18 16.36C173.18 13.0067 171.99 10.13 169.61 7.73C167.21 5.35 164.333 4.16 160.98 4.16C157.62 4.16 154.743 5.35 152.35 7.73C149.963 10.13 148.77 13.0067 148.77 16.36C148.77 19.7133 149.963 22.59 152.35 24.99C154.743 27.37 157.62 28.56 160.98 28.56ZM160.98 0C165.487 0 169.343 1.59667 172.55 4.79C175.743 7.99667 177.34 11.8533 177.34 16.36C177.34 20.8667 175.743 24.7233 172.55 27.93C169.343 31.1233 165.487 32.72 160.98 32.72C156.467 32.72 152.607 31.1233 149.4 27.93C146.213 24.7233 144.62 20.8667 144.62 16.36C144.62 11.8533 146.213 7.99667 149.4 4.79C152.607 1.59667 156.467 0 160.98 0ZM195.94 28.56C199.3 28.56 202.177 27.37 204.57 24.99C206.95 22.59 208.14 19.7133 208.14 16.36C208.14 13.0067 206.95 10.13 204.57 7.73C202.177 5.35 199.3 4.16 195.94 4.16C192.587 4.16 189.71 5.35 187.31 7.73C184.93 10.13 183.74 13.0067 183.74 16.36C183.74 19.7133 184.93 22.59 187.31 24.99C189.71 27.37 192.587 28.56 195.94 28.56ZM195.94 0C200.453 0 204.313 1.59667 207.52 4.79C210.707 7.99667 212.3 11.8533 212.3 16.36C212.3 20.8667 210.707 24.7233 207.52 27.93C204.313 31.1233 200.453 32.72 195.94 32.72C191.433 32.72 187.577 31.1233 184.37 27.93C181.177 24.7233 179.58 20.8667 179.58 16.36C179.58 11.8533 181.177 7.99667 184.37 4.79C187.577 1.59667 191.433 0 195.94 0ZM224.35 9.21V0H228.5V9.21C228.5 12.3767 227.377 14.76 225.13 16.36C227.377 17.96 228.5 20.3433 228.5 23.51V32.72H224.35V23.51C224.35 22.1167 223.853 20.9233 222.86 19.93C221.873 18.9433 220.683 18.45 219.29 18.45H218.71V32.72H214.55V0H218.71V14.27H219.29C220.683 14.27 221.873 13.7767 222.86 12.79C223.853 11.7967 224.35 10.6033 224.35 9.21Z" fill="#989898"/>
<path d="M90.885 42.3H5V43.3H90.885V42.3Z" fill="#989898"/>
<path d="M223.5 42.3H137.615V43.3H223.5V42.3Z" fill="#989898"/>
<path d="M93.885 38.866V46.736H95.905C96.495 46.736 97.015 46.646 97.475 46.466C97.925 46.286 98.315 46.026 98.625 45.686C98.935 45.346 99.175 44.926 99.335 44.436C99.495 43.946 99.575 43.386 99.575 42.766C99.575 41.506 99.255 40.546 98.625 39.876C97.995 39.196 97.065 38.866 95.855 38.866H93.885ZM95.785 45.916H94.885V39.676H95.785C96.705 39.676 97.395 39.946 97.855 40.476C98.315 40.996 98.545 41.766 98.545 42.766C98.545 43.766 98.315 44.536 97.855 45.096C97.395 45.646 96.705 45.916 95.785 45.916ZM101.265 38.866V46.736H102.265V38.866H101.265ZM104.445 45.016L103.845 45.716C104.185 46.076 104.595 46.356 105.065 46.566C105.545 46.776 106.055 46.876 106.605 46.876C107.025 46.876 107.395 46.826 107.725 46.706C108.045 46.586 108.325 46.426 108.565 46.226C108.795 46.026 108.975 45.786 109.095 45.516C109.215 45.236 109.285 44.946 109.285 44.636C109.285 44.346 109.235 44.096 109.155 43.876C109.075 43.656 108.955 43.466 108.815 43.296C108.665 43.136 108.495 42.986 108.295 42.866C108.095 42.746 107.885 42.636 107.665 42.536L106.545 42.056C106.385 41.996 106.225 41.926 106.075 41.846C105.925 41.766 105.785 41.686 105.655 41.586C105.525 41.486 105.425 41.366 105.355 41.236C105.275 41.106 105.235 40.936 105.235 40.746C105.235 40.386 105.375 40.106 105.635 39.906C105.905 39.696 106.265 39.596 106.705 39.596C107.065 39.596 107.395 39.666 107.695 39.796C107.985 39.926 108.245 40.106 108.485 40.336L109.025 39.696C108.745 39.406 108.405 39.166 108.005 38.986C107.605 38.806 107.175 38.716 106.705 38.716C106.345 38.716 106.015 38.776 105.715 38.876C105.415 38.976 105.155 39.126 104.935 39.316C104.715 39.506 104.535 39.726 104.415 39.976C104.295 40.236 104.225 40.516 104.225 40.806C104.225 41.096 104.275 41.346 104.375 41.566C104.465 41.786 104.595 41.976 104.745 42.136C104.895 42.296 105.065 42.436 105.265 42.546C105.455 42.656 105.645 42.756 105.825 42.836L106.955 43.326C107.135 43.416 107.305 43.496 107.465 43.576C107.625 43.656 107.765 43.746 107.885 43.846C107.995 43.946 108.095 44.066 108.155 44.206C108.225 44.346 108.265 44.516 108.265 44.716C108.265 45.106 108.115 45.416 107.825 45.646C107.545 45.886 107.135 46.006 106.615 46.006C106.205 46.006 105.815 45.916 105.435 45.736C105.055 45.556 104.725 45.316 104.445 45.016ZM110.825 38.866V46.736H111.825V43.616H113.245C113.675 43.616 114.065 43.566 114.425 43.466C114.775 43.366 115.085 43.216 115.345 43.016C115.595 42.816 115.795 42.566 115.935 42.256C116.075 41.956 116.145 41.596 116.145 41.176C116.145 40.746 116.075 40.386 115.935 40.086C115.795 39.796 115.595 39.556 115.345 39.376C115.095 39.196 114.785 39.066 114.425 38.986C114.065 38.906 113.675 38.866 113.245 38.866H110.825ZM113.125 42.796H111.825V39.666H113.125C113.805 39.666 114.305 39.776 114.645 39.996C114.985 40.216 115.145 40.616 115.145 41.176C115.145 41.736 114.985 42.146 114.655 42.406C114.315 42.666 113.805 42.796 113.125 42.796ZM117.745 38.866V46.736H122.185V45.886H118.735V38.866H117.745ZM126.955 43.536H124.595L124.965 42.336C125.105 41.896 125.245 41.456 125.375 41.016C125.505 40.586 125.625 40.136 125.745 39.676H125.795C125.925 40.136 126.045 40.586 126.175 41.016C126.305 41.456 126.445 41.896 126.585 42.336L126.955 43.536ZM127.205 44.336L127.955 46.736H129.025L126.355 38.866H125.225L122.565 46.736H123.585L124.345 44.336H127.205ZM131.245 43.686V46.736H132.245V43.686L134.615 38.866H133.565L132.565 41.086C132.445 41.376 132.315 41.656 132.175 41.936C132.045 42.216 131.905 42.506 131.765 42.796H131.725C131.585 42.506 131.455 42.216 131.335 41.936C131.215 41.656 131.095 41.376 130.965 41.086L129.945 38.866H128.875L131.245 43.686Z" fill="#989898"/>
</svg>