<?xml version="1.0" standalone="no"?>
<!DOCTYPE svg PUBLIC "-//W3C//DTD SVG 20010904//EN"
 "http://www.w3.org/TR/2001/REC-SVG-20010904/DTD/svg10.dtd">
<svg version="1.0" xmlns="http://www.w3.org/2000/svg"
 width="91.000000pt" height="27.000000pt" viewBox="0 0 91.000000 27.000000"
 preserveAspectRatio="xMidYMid meet">

<g transform="translate(0.000000,27.000000) scale(0.100000,-0.100000)"
fill="#000000" stroke="none">
<path d="M60 125 l0 -115 70 0 c56 0 70 3 70 15 0 11 -12 15 -50 15 l-50 0 0
100 c0 93 -1 100 -20 100 -19 0 -20 -7 -20 -115z"/>
<path d="M264 221 c-59 -36 -69 -134 -20 -180 53 -50 139 -33 171 35 49 103
-57 205 -151 145z m96 -33 c27 -30 28 -100 0 -128 -45 -45 -100 -9 -100 65 0
75 56 110 100 63z"/>
<path d="M513 220 c-39 -24 -53 -48 -53 -95 0 -80 60 -127 144 -111 l36 7 0
54 c0 48 -2 55 -20 55 -17 0 -20 -7 -20 -45 0 -38 -3 -45 -19 -45 -52 0 -87
49 -77 105 9 46 37 68 80 63 33 -4 54 11 39 26 -13 13 -80 5 -110 -14z"/>
<path d="M724 221 c-59 -36 -69 -134 -20 -180 53 -50 139 -33 171 35 49 103
-57 205 -151 145z m96 -33 c27 -30 28 -100 0 -128 -45 -45 -100 -9 -100 65 0
75 56 110 100 63z"/>
</g>
</svg>
